<svg width="457" height="108" viewBox="0 0 457 108" version="1.1" xmlns="http://www.w3.org/2000/svg" xmlns:xlink="http://www.w3.org/1999/xlink">
<title>joint seal qld header</title>
<desc>Created using Figma</desc>
<g id="Canvas" transform="translate(-553 -1953)">
<g id="joint seal qld header">
<g id="&#34;qld&#34;">
<g id="Vector">
<use xlink:href="#path0_fill" transform="translate(982.484 2028.12)" fill="#EB0029"/>
</g>
<g id="Vector">
<use xlink:href="#path1_fill" transform="translate(982.731 2012.51)" fill="#EB0029"/>
</g>
<g id="Vector">
<use xlink:href="#path2_fill" transform="translate(982.731 1992.3)" fill="#EB0029"/>
</g>
</g>
<g id="&#34;quality first&#34;">
<g id="Vector">
<use xlink:href="#path3_fill" transform="translate(907.469 1953)" fill="#58595B"/>
</g>
<g id="Vector">
<use xlink:href="#path4_fill" transform="translate(917.52 1957.08)" fill="#58595B"/>
</g>
<g id="Vector">
<use xlink:href="#path5_fill" transform="translate(926.748 1956.79)" fill="#58595B"/>
</g>
<g id="Vector">
<use xlink:href="#path6_fill" transform="translate(935.691 1953.3)" fill="#58595B"/>
</g>
<g id="Vector">
<use xlink:href="#path7_fill" transform="translate(940.612 1953.13)" fill="#58595B"/>
</g>
<g id="Vector">
<use xlink:href="#path8_fill" transform="translate(946.445 1953.77)" fill="#58595B"/>
</g>
<g id="Vector">
<use xlink:href="#path9_fill" transform="translate(950.32 1957.09)" fill="#58595B"/>
</g>
<g id="Vector">
<use xlink:href="#path10_fill" transform="translate(964.86 1953.3)" fill="#58595B"/>
</g>
<g id="Vector">
<use xlink:href="#path11_fill" transform="translate(973.402 1953.13)" fill="#58595B"/>
</g>
<g id="Vector">
<use xlink:href="#path12_fill" transform="translate(978.238 1956.79)" fill="#58595B"/>
</g>
<g id="Vector">
<use xlink:href="#path13_fill" transform="translate(985.065 1956.79)" fill="#58595B"/>
</g>
<g id="Vector">
<use xlink:href="#path14_fill" transform="translate(994.303 1953.77)" fill="#58595B"/>
</g>
</g>
<g id="&#34;joint seal&#34; and gun and sealant">
<g id="Vector">
<use xlink:href="#path15_fill" transform="translate(553 1973.69)" fill="#0D0116"/>
</g>
<g id="Vector">
<use xlink:href="#path16_fill" transform="translate(668.417 1973.69)" fill="#0D0116"/>
</g>
<g id="caulking gun">
<g id="Group">
<g id="Vector">
<use xlink:href="#path17_fill" transform="translate(613.992 2014.32)" fill="#FFFFFF"/>
</g>
<g id="Group">
<g id="Vector">
<use xlink:href="#path18_fill" transform="translate(609.845 1997.23)" fill="url(#paint18_linear)"/>
</g>
<g id="Vector">
<use xlink:href="#path19_fill" transform="translate(614.664 2019.08)" fill="#F16522"/>
</g>
<g id="Group">
<g id="Vector">
<use xlink:href="#path20_fill" transform="translate(614.816 1997.57)" fill="#0D0116"/>
</g>
<g id="Vector">
<use xlink:href="#path21_fill" transform="translate(599.128 2008.71)" fill="#0D0116"/>
</g>
<g id="Vector">
<use xlink:href="#path22_fill" transform="translate(614.592 2017.57)" fill="#0D0116"/>
</g>
</g>
<g id="Vector">
<use xlink:href="#path23_fill" transform="translate(657.223 2030.71)" fill="#DDD2DE"/>
</g>
<g id="Vector">
<use xlink:href="#path24_fill" transform="translate(663.735 2022.37)" fill="#F16522"/>
</g>
<g id="Vector">
<use xlink:href="#path25_fill" transform="translate(657.222 2023.74)" fill="url(#paint25_linear)"/>
</g>
<g id="Vector">
<use xlink:href="#path26_fill" transform="translate(650.581 2028.8)" fill="#F16522"/>
</g>
</g>
</g>
</g>
<g id="Vector">
<use xlink:href="#path27_fill" transform="translate(687.349 1988.99)" fill="#0D0116"/>
</g>
<g id="Vector">
<use xlink:href="#path28_fill" transform="translate(746.761 1973.69)" fill="#0D0116"/>
</g>
<g id="Group">
<g id="Vector">
<use xlink:href="#path29_fill" transform="translate(775.391 1971.57)" fill="#EB0029"/>
</g>
<g id="Vector">
<use xlink:href="#path30_fill" transform="translate(843.218 1988.99)" fill="#EB0029"/>
</g>
<g id="Vector">
<use xlink:href="#path31_fill" transform="translate(902.404 1988.99)" fill="#EB0029"/>
</g>
<g id="Vector">
<use xlink:href="#path32_fill" transform="translate(958.859 1973.69)" fill="#EB0029"/>
</g>
</g>
<g id="Vector">
<use xlink:href="#path33_fill" transform="translate(682.037 2046.95)" fill="#BBBDBF"/>
</g>
<g id="Vector">
<use xlink:href="#path34_fill" transform="translate(683.585 2048.5)" fill="url(#paint34_linear)"/>
</g>
</g>
<g id="o overlay">
<use xlink:href="#path35_fill" transform="translate(608.474 1988.94)" fill="#0D0116"/>
</g>
</g>
</g>
<defs>
<linearGradient id="paint18_linear" x1="0" y1="0" x2="1" y2="0" gradientUnits="userSpaceOnUse" gradientTransform="matrix(771.425 973.913 -1234.23 608.721 1.12415e+06 2401.97)">
<stop offset="0" stop-color="#FFFFFF"/>
<stop offset="1" stop-color="#BBBDBF"/>
</linearGradient>
<linearGradient id="paint25_linear" x1="0" y1="0" x2="1" y2="0" gradientUnits="userSpaceOnUse" gradientTransform="matrix(20.0541 0 0 29.9383 -65015.8 393.173)">
<stop offset="0" stop-color="#FFFFFF"/>
<stop offset="1" stop-color="#BBBDBF"/>
</linearGradient>
<linearGradient id="paint34_linear" x1="0" y1="0" x2="1" y2="0" gradientUnits="userSpaceOnUse" gradientTransform="matrix(0 71.1018 -2171.93 0 -4.9455e+06 988.832)">
<stop offset="0" stop-color="#FFFFFF"/>
<stop offset="1" stop-color="#D3EEFB"/>
</linearGradient>
<path id="path0_fill" d="M 15.5421 2.55272e-06L 17.6256 2.55272e-06L 17.6256 1.85805L 17.6256 3.8291L 17.7342 6.44354C 17.834 8.1156 17.8773 9.46553 17.872 10.4827C 17.8773 11.5656 17.7925 12.5925 17.6132 13.5589C 17.2732 15.4935 16.4368 16.6859 15.0961 17.1371C 14.2924 17.4085 13.0885 17.5349 11.4855 17.5233L 6.60757 17.5233C 4.20612 17.5108 2.63487 17.1095 1.88767 16.3237C 0.614967 14.9685 -0.0147556 12.7349 0.000259009 9.61325C 0.00909111 6.63397 0.564639 4.49473 1.66512 3.19285C 2.25863 2.49608 2.96255 2.09831 3.78482 1.99331C 4.32799 1.915 5.08755 1.86961 6.06526 1.85805L 11.3504 1.85805L 12.4835 1.95504C 13.9532 2.14814 15.0157 2.84313 15.6631 4.0409L 15.5421 2.55272e-06ZM 6.57134 5.60973L 4.66007 5.64621C 2.89366 5.71206 1.99279 7.07801 1.96188 9.7494C 1.94333 12.3131 2.84331 13.6408 4.66007 13.7316L 6.57134 13.7698L 11.4378 13.7698L 13.2131 13.6533C 14.1846 13.5643 14.8603 13.2412 15.2471 12.6869C 15.6993 12.0301 15.9201 10.9854 15.9113 9.55363C 15.9387 7.8522 15.5368 6.73097 14.7172 6.19082C 14.0839 5.78949 12.9905 5.59639 11.4378 5.61062L 6.57134 5.61062L 6.57134 5.60973Z"/>
<path id="path1_fill" d="M -4.31255e-06 11.7L -4.31255e-06 7.94919L 15.4164 7.94919L 15.4164 2.71566e-07L 17.378 2.71566e-07L 17.378 11.6991L -4.31255e-06 11.6991L -4.31255e-06 11.7Z"/>
<path id="path2_fill" d="M -4.31255e-06 15.6466L -4.31255e-06 8.95386C -4.31255e-06 7.84597 0.0485716 6.79593 0.148374 5.80194C 0.255243 4.66825 0.49813 3.66804 0.876144 2.80487C 1.51647 1.30811 2.40941 0.439595 3.562 0.193101C 4.12814 0.078308 4.7658 0.0133484 5.47149 3.66615e-07L 11.8677 3.66615e-07C 14.0104 0.0382647 15.4544 0.624687 16.1936 1.76016C 16.758 2.62511 17.1201 3.66359 17.2791 4.87381C 17.3427 5.39082 17.3772 6.58236 17.3772 8.45197L 17.3772 15.6466L -4.31255e-06 15.6466ZM 1.95983 11.8949L 15.4164 11.8949L 15.4164 8.43328C 15.4164 6.35811 15.0764 5.02954 14.3937 4.44756C 13.8213 3.97148 12.8684 3.74012 11.5471 3.75258L 5.65606 3.75258C 4.33302 3.75258 3.42596 4.0053 2.93401 4.50807C 2.30075 5.1648 1.97663 6.4729 1.95897 8.43328L 1.95897 11.8949L 1.95983 11.8949Z"/>
<path id="path3_fill" d="M 4.74947 15.659C 4.23545 15.8192 3.6561 15.8975 3.01226 15.8975C 2.06195 15.8975 1.35805 15.7133 0.898791 15.3396C 0.439534 14.964 0.158679 14.4292 0.0571123 13.7253C -0.0479868 13.0232 -0.00824929 12.1841 0.178103 11.207C 0.360922 10.2335 0.614413 9.15586 0.945608 7.98123C 1.2662 6.81817 1.60975 5.74766 1.97186 4.76436C 2.33397 3.78105 2.76053 2.93923 3.25335 2.23535C 3.75059 1.53502 4.33173 0.985972 5.0056 0.590871C 5.67682 0.196659 6.48936 -3.31311e-06 7.43967 -3.31311e-06C 8.38821 -3.31311e-06 9.08858 0.196659 9.54077 0.590871C 9.99473 0.985083 10.2738 1.53502 10.3771 2.23535C 10.4787 2.93923 10.4372 3.78016 10.2526 4.76436C 10.0663 5.74766 9.81277 6.81906 9.48864 7.98123C 9.12477 9.28667 8.73617 10.4684 8.32461 11.53C 7.91039 12.5899 7.39991 13.4868 6.78256 14.2201L 7.68782 15.8334L 5.73335 17.4913L 4.74947 15.659ZM 2.80295 10.617C 2.64044 11.3414 2.56182 11.9278 2.55652 12.3781C 2.55652 12.8319 2.63954 13.1638 2.81176 13.3685C 2.97868 13.5785 3.25337 13.6817 3.62961 13.6817C 4.00408 13.6817 4.33526 13.5794 4.62142 13.3685C 4.9058 13.1638 5.1734 12.831 5.42334 12.3781C 5.67505 11.9278 5.91882 11.3423 6.16346 10.617C 6.40457 9.89267 6.66687 9.01437 6.95479 7.98034C 7.24271 6.94809 7.46704 6.07335 7.62424 5.35612C 7.78322 4.638 7.86536 4.0489 7.86889 3.5924C 7.87419 3.13323 7.79295 2.79953 7.62249 2.5913C 7.45204 2.38485 7.17911 2.27806 6.80464 2.27806C 6.42664 2.27806 6.09721 2.38396 5.81105 2.5913C 5.5249 2.79953 5.25554 3.13323 5.0056 3.5924C 4.75213 4.04979 4.50837 4.63889 4.26726 5.35612C 4.02438 6.07424 3.76208 6.94809 3.47593 7.98034C 3.18801 9.01437 2.96545 9.89267 2.80295 10.617Z"/>
<path id="path4_fill" d="M 4.62201 10.2201C 4.2025 10.7941 3.75647 11.2034 3.27866 11.4455C 2.80086 11.6902 2.29746 11.8121 1.76931 11.8121C 0.99829 11.8121 0.47192 11.5656 0.1946 11.0717C -0.0862536 10.5743 -0.0624175 9.74762 0.261712 8.58278L 2.64897 -2.71566e-07L 5.07595 -2.71566e-07L 2.85564 7.98301C 2.68695 8.58278 2.65249 9.00458 2.75052 9.23951C 2.84679 9.47799 3.0782 9.59545 3.44208 9.59545C 4.29612 9.59545 4.90286 8.95741 5.26055 7.68045L 7.39784 -2.71566e-07L 9.82307 -2.71566e-07L 6.60298 11.5736L 4.27934 11.5736L 4.6591 10.2201L 4.62201 10.2201L 4.62201 10.2201Z"/>
<path id="path5_fill" d="M 1.98687 3.56927C 2.17499 2.89474 2.42139 2.33324 2.72167 1.88029C 3.02195 1.42824 3.36373 1.06339 3.73732 0.782193C 4.11708 0.503664 4.52422 0.304337 4.96227 0.182425C 5.40033 0.0587335 5.84721 5.43133e-07 6.30558 5.43133e-07C 7.03155 5.43133e-07 7.59061 0.0854292 7.99069 0.257174C 8.389 0.427139 8.6672 0.674522 8.82352 0.986866C 8.98249 1.30277 9.04606 1.68007 9.01162 2.11789C 8.97718 2.55392 8.88711 3.03 8.74404 3.54613L 7.04833 9.63639C 6.89642 10.1801 6.80016 10.6046 6.75865 10.9053C 6.7136 11.2061 6.70302 11.5291 6.72598 11.8717L 4.40412 11.8717C 4.37497 11.6858 4.36791 11.4909 4.38557 11.2826C 4.40324 11.0744 4.42001 10.8689 4.44209 10.6695L 4.40587 10.6695C 3.95545 11.2729 3.52446 11.6635 3.10318 11.8406C 2.68367 12.0212 2.18206 12.1102 1.59563 12.1102C 1.17171 12.1102 0.840505 12.0212 0.596749 11.8406C 0.353876 11.6635 0.187835 11.4161 0.101284 11.0984C 0.0147333 10.7825 -0.0179476 10.4293 0.00943079 10.0351C 0.0368092 9.64084 0.105706 9.24752 0.212571 8.86042C 0.364477 8.31849 0.541998 7.84686 0.746011 7.45265C 0.949141 7.06022 1.18759 6.72296 1.45696 6.43909C 1.73163 6.16234 2.03985 5.92831 2.39223 5.74233C 2.74197 5.55634 3.14912 5.39261 3.61191 5.24845L 5.11065 4.79461C 5.50366 4.67982 5.80042 4.5232 5.9956 4.32209C 6.19431 4.12187 6.34446 3.82821 6.45309 3.44112C 6.57938 2.99797 6.5873 2.64647 6.48751 2.3982C 6.38771 2.14458 6.13249 2.01911 5.72182 2.01911C 5.34735 2.01911 5.03029 2.15437 4.76622 2.42934C 4.50215 2.70075 4.30696 3.06738 4.17801 3.52744L 4.08794 3.84868L 1.90739 3.84868L 1.98687 3.56927ZM 5.08593 6.46312C 4.87044 6.55566 4.68232 6.62329 4.51804 6.66778C 3.98814 6.79503 3.57923 7.01217 3.28514 7.31294C 2.98839 7.61372 2.76935 8.02217 2.62451 8.53829C 2.50175 8.98501 2.46555 9.36409 2.51942 9.67821C 2.57153 9.99412 2.76228 10.1525 3.08906 10.1525C 3.25598 10.1525 3.43261 10.1196 3.62867 10.0555C 3.82209 9.99145 4.01199 9.88822 4.19834 9.74406C 4.38469 9.60168 4.5569 9.41392 4.71587 9.18433C 4.87131 8.95475 4.99496 8.68245 5.08151 8.36566L 5.72004 6.08492C 5.51073 6.24421 5.29878 6.37146 5.08593 6.46312Z"/>
<path id="path6_fill" d="M 6.7018 1.68371e-06L 2.42529 15.3591L -7.1157e-06 15.3591L 4.27473 1.68371e-06L 6.7018 1.68371e-06Z"/>
<path id="path7_fill" d="M 5.64724 3.95903L 2.42353 15.5327L 1.18595e-05 15.5327L 3.22194 3.95903L 5.64724 3.95903ZM 6.75125 1.95528e-06L 6.04203 2.53968L 3.61676 2.53968L 4.3242 1.95528e-06L 6.75125 1.95528e-06Z"/>
<path id="path8_fill" d="M 6.09962 0.000889488L 5.18021 3.31387L 6.58804 3.31387L 6.02366 5.33654L 4.61583 5.33654L 2.87326 11.5968C 2.74432 12.0577 2.70899 12.3825 2.76639 12.5774C 2.82292 12.7705 3.03048 12.8657 3.38023 12.8657C 3.47297 12.8657 3.57011 12.8639 3.66462 12.8568C 3.75912 12.8479 3.85098 12.8381 3.93577 12.8257L 3.36522 14.8866C 3.09231 14.8866 2.83085 14.9008 2.57384 14.9213C 2.31506 14.9418 2.04569 14.9525 1.7613 14.9525C 1.29408 14.9525 0.923128 14.9124 0.644917 14.8341C 0.368473 14.7558 0.183013 14.5956 0.0911593 14.3616C -0.00157772 14.1231 -0.0227918 13.8125 0.0240183 13.4246C 0.0743613 13.0384 0.181223 12.5507 0.34285 11.9607L 2.19053 5.33565L 0.958466 5.33565L 1.52107 3.31298L 2.75402 3.31298L 3.67521 1.08627e-07L 6.09962 1.08627e-07L 6.09962 0.000889488Z"/>
<path id="path9_fill" d="M 1.23119 13.146C 1.67633 13.146 2.03492 13.0019 2.30959 12.7136C 2.58251 12.4288 2.80153 12.0497 2.97022 11.5736L 3.53813 -7.60386e-07L 6.07208 -7.60386e-07L 5.24892 8.00348L 5.28159 8.00348L 8.74378 -7.60386e-07L 11.1691 -7.60386e-07L 5.8751 10.8003C 5.39728 11.7632 4.97953 12.54 4.61918 13.1362C 4.25883 13.7325 3.9029 14.1898 3.54961 14.5129C 3.19456 14.8341 2.82009 15.0468 2.42353 15.1456C 2.02697 15.2479 1.54737 15.2986 0.983001 15.2986L 9.4876e-06 15.2986L 0.615599 13.0811C 0.815204 13.1247 1.01833 13.146 1.23119 13.146Z"/>
<path id="path10_fill" d="M 11.2909 1.68371e-06L 10.5817 2.53968L 6.1012 2.53968L 5.09347 6.15344L 9.31346 6.15344L 8.60423 8.69135L 4.38602 8.69135L 2.52775 15.36L 0 15.36L 4.27298 0.000891063L 11.2909 0.000891063L 11.2909 1.68371e-06Z"/>
<path id="path11_fill" d="M 5.65078 3.95903L 2.42882 15.5327L -8.84072e-06 15.5327L 3.22373 3.95903L 5.65078 3.95903ZM 6.75301 1.95528e-06L 6.04734 2.53968L 3.61852 2.53968L 4.32596 1.95528e-06L 6.75301 1.95528e-06Z"/>
<path id="path12_fill" d="M 5.54515 0.298996L 5.11414 1.84914L 5.14859 1.84914C 5.55224 1.28942 5.97532 0.840929 6.41961 0.503668C 6.86389 0.166408 7.33909 1.03195e-06 7.84432 1.03195e-06C 7.91322 1.03195e-06 7.98739 0.00178267 8.06158 0.00890162C 8.13401 0.0178003 8.20468 0.0275853 8.27181 0.0400435L 7.4804 2.88139C 7.35409 2.86538 7.23222 2.85559 7.10944 2.84847C 6.9902 2.84313 6.86653 2.83779 6.73846 2.83779C 6.52824 2.83779 6.30389 2.87427 6.07248 2.94546C 5.84106 3.01843 5.61672 3.13501 5.39237 3.29963C 5.17155 3.46515 4.97104 3.67872 4.78997 3.94657C 4.61244 4.20908 4.46934 4.53566 4.36246 4.92364L 2.42721 11.8726L 2.80334e-06 11.8726L 3.22393 0.298996L 5.54515 0.298996L 5.54515 0.298996Z"/>
<path id="path13_fill" d="M 2.45437 8.47511C 2.31659 8.977 2.30954 9.38278 2.44025 9.68978C 2.57096 9.99945 2.84209 10.1534 3.251 10.1534C 3.629 10.1534 3.95842 10.0386 4.24457 9.8108C 4.53072 9.57944 4.74002 9.23595 4.8672 8.775C 4.97053 8.40303 4.96169 8.12183 4.83981 7.92873C 4.71705 7.73207 4.5572 7.57723 4.35319 7.46333L 2.85798 6.70872C 2.26802 6.42396 1.87854 6.01907 1.68512 5.49761C 1.49171 4.97081 1.50583 4.30163 1.73369 3.48295C 1.86617 3.01043 2.0543 2.56371 2.30335 2.13924C 2.54976 1.71656 2.8571 1.34637 3.22804 1.03047C 3.59367 0.715453 4.02464 0.463618 4.51657 0.279416C 5.01027 0.0916534 5.56579 1.03195e-06 6.18843 1.03195e-06C 7.28886 1.03195e-06 8.02543 0.286535 8.39283 0.858721C 8.75847 1.43358 8.79644 2.24247 8.50676 3.28984L 8.37429 3.76236L 6.19196 3.76236C 6.36064 3.16081 6.40391 2.71944 6.32443 2.44002C 6.24494 2.1606 6.00561 2.01911 5.60642 2.01911C 5.29907 2.01911 5.00408 2.12323 4.71793 2.33413C 4.43355 2.5388 4.23131 2.85381 4.11385 3.26937C 4.03437 3.55769 4.03614 3.81309 4.11916 4.04267C 4.20395 4.27404 4.42648 4.46714 4.79389 4.62287L 6.08423 5.22798C 6.76074 5.54121 7.18289 5.95411 7.35864 6.46401C 7.53263 6.97123 7.49818 7.66533 7.25531 8.53918C 7.08309 9.15764 6.8464 9.68978 6.54436 10.1436C 6.24408 10.5957 5.89434 10.9712 5.50044 11.2737C 5.10566 11.5727 4.67556 11.7899 4.21366 11.9189C 3.74646 12.0479 3.25805 12.112 2.74227 12.112C 2.06223 12.112 1.51733 12.0337 1.11195 11.8735C 0.703044 11.7169 0.413345 11.4829 0.237593 11.1661C 0.0618413 10.8493 -0.0158703 10.4657 0.00267639 10.0155C 0.0229894 9.56342 0.109536 9.05619 0.268507 8.49646L 0.382435 8.08801L 2.56123 8.08801L 2.45437 8.47511Z"/>
<path id="path14_fill" d="M 6.10608 0.000889488L 5.17961 3.31387L 6.58744 3.31387L 6.02307 5.33654L 4.62052 5.33654L 2.8762 11.5968C 2.74725 12.0577 2.70926 12.3825 2.76755 12.5774C 2.82408 12.7705 3.03164 12.8657 3.38139 12.8657C 3.47413 12.8657 3.56951 12.8639 3.66578 12.8568C 3.76028 12.8479 3.8539 12.8381 3.94046 12.8257L 3.36285 14.8866C 3.09347 14.8866 2.83114 14.9008 2.57236 14.9213C 2.31534 14.9418 2.04422 14.9525 1.76513 14.9525C 1.29614 14.9525 0.919891 14.9124 0.645213 14.8341C 0.367885 14.7558 0.181515 14.5956 0.0914279 14.3616C -0.00130911 14.1231 -0.0242771 13.8125 0.0260659 13.4246C 0.0764088 13.0384 0.181519 12.5507 0.343146 11.9607L 2.19083 5.33565L 0.957873 5.33565L 1.52222 3.31298L 2.75432 3.31298L 3.67551 1.08627e-07L 6.10608 1.08627e-07L 6.10608 0.000889488Z"/>
<path id="path15_fill" d="M 4.88518e-08 45.6814L 15.6951 45.6814L 15.6951 54.6014C 15.6951 57.1527 16.4502 59.138 17.9675 60.5511C 19.4822 61.8254 21.8341 62.4625 25.0189 62.4625C 28.201 62.4625 30.5529 61.6875 32.0685 60.1249C 33.2785 58.7118 33.887 55.6648 33.887 50.9913L 33.887 7.64842C 33.887 5.5243 34.7172 3.71876 36.3881 2.23001C 38.0547 0.74215 40.0278 1.35783e-08 42.302 1.35783e-08L 50.0334 1.35783e-08L 50.0334 51.6293C 50.0334 56.3011 49.809 59.7031 49.3524 61.8254C 48.5938 64.2378 47.6081 66.1493 46.3938 67.5642C 44.2715 69.9748 41.4674 71.8115 37.9814 73.0876C 34.0362 74.2204 29.7943 74.7872 25.2468 74.7872C 20.391 74.7872 16.4502 74.2204 13.4182 73.0876C 10.2335 72.3801 7.42671 70.8229 5.00502 68.414C 3.03198 66.4296 1.74253 64.4496 1.14108 62.4625C 0.378887 59.9131 4.88518e-08 56.2335 4.88518e-08 51.4166L 4.88518e-08 45.6814L 4.88518e-08 45.6814Z"/>
<path id="path16_fill" d="M 6.36101e-06 1.35783e-08L 8.18824 1.35783e-08C 10.3079 1.35783e-08 12.1282 0.710115 13.6456 2.12412C 15.1612 3.5399 15.9199 5.24222 15.9199 7.22217L 15.9199 11.684L 6.36101e-06 11.684L 6.36101e-06 1.35783e-08ZM 6.36101e-06 16.5702L 8.18824 16.5702C 10.3079 16.5702 12.1282 17.2821 13.6456 18.697C 15.1612 20.1128 15.9199 21.8151 15.9199 23.7951L 15.9199 73.0876L 6.36101e-06 68.0492L 6.36101e-06 16.5702Z"/>
<path id="path17_fill" d="M 41.337 34.0799C 45.004 34.0799 49.1065 30.6699 50.8508 29.0486L 66.7192 36.7744L 77.1586 33.2674L 56.3831 18.8213C 58.8305 12.0886 55.7358 7.51288 53.6311 5.9734L 53.5472 5.91467L 49.314 3.63038L 47.0159 3.63038L 35.5882 14.3569L 1.79656 0L 0 11.2286C 16.0039 20.5607 36.6718 32.5372 39.2332 33.6554C 39.8753 33.9393 40.5836 34.0799 41.337 34.0799Z"/>
<path id="path18_fill" d="M 14.0389 0L -4.26323e-05 23.8382L 43.5843 48.4991C 43.5843 48.4991 46.7002 44.4013 46.566 43.9928C 46.4308 43.5808 55.7864 24.1363 55.7864 24.1363L 14.0389 0Z"/>
<path id="path19_fill" d="M 0 0L 29.4244 16.5279C 29.4244 16.5279 28.5103 17.5583 31.1546 13.8164C 33.7988 10.071 39.0352 5.72576 40.4846 6.05412C 40.4846 6.05412 35.9344 13.9188 35.4248 16.6587C 34.9152 19.3977 35.4248 24.6221 35.4248 24.6221L 1.38803e-05 3.93992L 0 0Z"/>
<path id="path20_fill" d="M 0.403221 24.9155L 34.4095 44.3407C 34.4095 44.3407 32.4682 37.4754 37.9334 30.1304C 39.9682 27.3985 43.2228 25.2148 44.9856 24.3943L 44.8487 23.0275L 7.10157 1.43391L 8.24972 0L 45.3919 21.9365L 48.1033 21.9365L 51.9019 23.9868C 51.9019 23.9868 57.3238 27.9458 53.6621 36.1433L 72.9146 49.5295L 66.0019 51.8548L 49.7301 43.9296C 49.7301 43.9296 43.0876 50.7602 39.0197 48.9858C 36.5538 47.9087 15.8859 35.9294 0 26.6673L 0.403221 24.9155Z"/>
<path id="path21_fill" d="M -8.08807e-08 -1.11346e-06L 1.01595 -1.11346e-06L 0.761519 0.436053L -8.08807e-08 -1.11346e-06Z"/>
<path id="path22_fill" d="M 40.1585 6.16902C 41.2775 6.33899 39.679 8.38479 39.679 8.38479C 33.5082 11.1852 31.8213 16.6534 31.4132 18.1911C 31.007 19.7262 29.9887 19.3213 29.9887 19.3213L 1.38803e-05 1.87832L 2.97435e-06 0L 29.7864 17.0637C 31.6173 9.68578 39.0422 5.99817 40.1585 6.16902Z"/>
<path id="path23_fill" d="M 23.0534 16.9404L 26.443 15.5763L 2.98675 -1.95528e-06C 2.98675 -1.95528e-06 -0.130855 0.273192 0.00427021 5.46647L 23.0534 16.9404Z"/>
<path id="path24_fill" d="M 3.25405 10.52C 3.25405 10.52 6.6459 4.50985 1.62703 -5.43133e-08L -2.58777e-06 -5.43133e-08L -2.58777e-06 8.33362L 3.25405 10.52Z"/>
<path id="path25_fill" d="M 4.20889 -6.78916e-07L 4.20889 4.78305C 4.20889 4.78305 1.35408 5.19149 -2.58777e-06 6.28336L -2.58777e-06 2.32166C -2.58777e-06 2.32255 1.90526 0.409339 4.20889 -6.78916e-07Z"/>
<path id="path26_fill" d="M 11.6635 12.1592L 8.74532 10.3812C 8.74532 10.3812 5.29021 11.0646 4.74792 7.92339C 4.20562 4.78127 4.74792 2.49841e-06 4.74792 2.49841e-06C 4.74792 2.49841e-06 -0.0991398 4.67003 0.00154611 10.3812C 0.104882 16.0942 4.47589 16.12 4.47589 16.12C 4.47589 16.12 6.78283 17.0757 11.6635 12.1592Z"/>
<path id="path27_fill" d="M 52.7589 57.7907L 44.8023 57.7907C 42.5254 57.7907 40.6672 57.1216 39.2285 55.7725C 37.7845 54.4288 37.0682 52.6909 37.0682 50.5668L 37.0682 21.671C 37.0682 18.2735 35.966 15.7961 33.7695 14.237C 31.5713 12.6788 29.1098 11.8984 26.379 11.8984C 23.65 11.8984 21.2238 12.6788 19.1024 14.237C 16.9748 15.7969 15.9168 18.2735 15.9168 21.671L 15.9168 57.7907L -3.0187e-06 57.7907L -3.0187e-06 24.6467C -3.0187e-06 15.0174 2.68841 8.57299 8.07232 5.31252C 13.4545 2.05382 19.4036 0.286537 25.9259 -7.19651e-07C 32.5949 -7.19651e-07 38.7365 1.62935 44.3465 4.88538C 49.9565 8.14586 52.7598 14.7336 52.7598 24.6458L 52.7598 57.7907L 52.7589 57.7907Z"/>
<path id="path28_fill" d="M 25.0168 73.0867C 20.0136 73.3661 14.5891 73.2985 8.75578 72.8749C 2.91889 72.4487 -5.49828e-06 68.9817 -5.49828e-06 62.4625L -5.49828e-06 1.35783e-08L 8.18791 1.35783e-08C 10.1547 1.35783e-08 11.8981 0.710115 13.4163 2.12412C 14.9309 3.5399 15.6914 5.24222 15.6914 7.22217L 15.6914 16.7838L 25.0168 16.7838L 25.0168 19.7586C 25.0168 21.8828 24.2546 23.6189 22.7444 24.9644C 21.2253 26.3134 19.4042 26.9826 17.2846 26.9826L 15.6914 26.9826L 15.6914 58.4252C 15.6914 60.8359 17.2042 62.0407 20.2397 62.0407L 25.0159 62.0407L 25.0159 73.0867L 25.0168 73.0867Z"/>
<path id="path29_fill" d="M -5.17492e-06 52.48L 15.9177 52.48C 16.5235 56.7282 18.2669 59.7057 21.1496 61.4036C 24.1816 63.388 28.3485 64.3793 33.6591 64.3793C 38.3541 64.3793 41.9187 63.6025 44.3474 62.0399C 46.7709 60.4844 47.987 58.2161 47.987 55.2422C 47.987 50.7101 41.1635 47.0296 27.5157 44.1927L 27.0608 43.9809L 25.2432 43.5573C 17.5092 41.9991 12.3531 40.3689 9.77776 38.6692C 6.74137 37.1129 4.62349 34.8446 3.40911 31.8706C 1.89179 29.3203 1.13489 26.0651 1.13489 22.0972C 1.13489 15.1589 3.70938 9.70491 8.86719 5.73876C 14.0188 1.91144 21.525 -7.97726e-08 31.384 -7.97726e-08C 40.6292 -7.97726e-08 47.7583 1.98441 52.7607 5.95144C 57.9132 10.3438 60.6422 16.079 60.9478 23.1597L 51.8501 23.1597C 48.3624 23.1597 45.8594 21.6736 44.3465 18.697C 43.587 17.283 42.5281 16.079 41.1635 15.0842C 38.4345 13.2475 34.7172 12.3238 30.0195 12.3238C 25.4711 12.3238 22.2077 13.1042 20.2409 14.6597C 17.9675 16.2205 16.8291 18.4141 16.8291 21.2456C 16.8291 25.0703 21.2247 27.9063 30.0204 29.7465C 32.5975 30.4566 34.4893 30.8802 35.7072 31.0208C 38.4354 31.8706 40.8209 32.5452 42.8672 33.039C 44.9144 33.5374 46.543 33.9254 47.7592 34.2092C 49.8797 35.0564 52.0011 35.9062 54.1261 36.7569C 57.1571 38.4566 59.5073 40.6545 61.1756 43.3419C 62.844 46.3168 63.6786 49.5764 63.6786 53.1163C 63.6786 60.7638 60.9478 66.7135 55.4906 70.9626C 50.0307 74.9305 42.2993 76.9122 32.2937 76.9122C 21.9807 76.9122 14.2485 74.8593 9.09683 70.7508C 3.48506 66.644 0.453952 60.552 -5.17492e-06 52.48Z"/>
<path id="path30_fill" d="M 43.4369 40.3689L 54.8079 40.3689C 53.1378 46.3203 49.9539 50.8524 45.2571 53.967C 40.5568 57.2257 34.6412 58.8523 27.5183 58.8523C 18.8781 58.8523 12.1279 56.2352 7.27744 50.9912C 2.42345 45.8923 -1.50935e-06 38.6007 -1.50935e-06 29.1085C -1.50935e-06 20.0443 2.3475 12.96 7.04958 7.86199C 11.9009 2.62422 18.6502 -7.19651e-07 27.2922 -7.19651e-07C 36.3873 -7.19651e-07 43.4378 2.54947 48.4401 7.64842C 53.2923 12.8906 55.7176 20.1849 55.7176 29.533C 55.7176 30.1016 55.7176 30.5946 55.7176 31.0208C 55.7176 31.4453 55.7176 31.7309 55.7176 31.8715C 55.7176 32.5808 55.6398 33.0755 55.4897 33.3576L 16.1473 33.3576C 16.2957 37.75 17.4323 41.0051 19.559 43.1293C 21.5259 45.3975 24.4819 46.5286 28.4271 46.5286C 31.0051 46.5286 33.2052 46.0365 35.0245 45.0425C 35.4767 44.9037 35.8918 44.6545 36.2733 44.3021C 36.6496 43.9479 37.0682 43.5564 37.5257 43.1293C 37.6723 42.7048 38.2437 42.1424 39.2302 41.4314C 40.215 40.7257 41.6193 40.3689 43.4369 40.3689ZM 16.1464 23.7969L 39.3433 23.7969C 39.0377 19.9731 37.977 17.1415 36.1576 15.2986C 34.1864 13.316 31.3849 12.3247 27.7444 12.3247C 24.4077 12.3247 21.6787 13.316 19.5581 15.2986C 17.4314 17.2821 16.2948 20.1146 16.1464 23.7969Z"/>
<path id="path31_fill" d="M 40.0286 55.4513C 36.843 57.0139 33.4666 57.9625 29.9064 58.3193C 26.3428 58.6735 23.1978 58.8515 20.4687 58.8515C 15.0089 58.8515 10.2326 57.4713 6.14079 54.7082C 2.04722 51.9479 -7.33113e-06 47.3811 -7.33113e-06 41.0043C -7.33113e-06 35.0564 1.85647 30.8081 5.57203 28.2578C 9.2876 25.7074 14.0223 24.0078 19.7878 23.1579C 20.5429 23.1579 21.4526 23.052 22.5168 22.8403C 23.5758 22.6285 24.7901 22.4523 26.1529 22.3099C 32.8254 21.4583 36.1612 19.6207 36.1612 16.7865C 36.1612 14.6597 34.983 13.2777 32.6355 12.6424C 30.2844 12.0034 28.1251 11.6858 26.1529 11.6858C 24.0315 11.6858 22.1335 11.9705 20.4687 12.5365C 18.7986 13.1042 17.586 14.1658 16.8309 15.7249L 1.59239 15.7249C 2.19648 11.3316 4.32143 7.72228 7.96104 4.88538C 12.0528 1.62935 17.8898 1.89687e-14 25.4729 1.89687e-14C 33.9594 1.89687e-14 40.3281 1.34815 44.5771 4.03555C 48.9727 6.87246 51.17 10.8359 51.17 15.934L 51.17 35.2691C 51.17 40.9375 50.0696 45.3602 47.874 48.5495C 45.674 51.7343 43.0588 54.0391 40.0286 55.4513ZM 36.3882 29.3194C 34.2632 30.3107 31.3081 31.2308 27.5183 32.0815L 22.2881 33.144C 19.5573 33.8533 17.586 34.7734 16.3752 35.9062C 15.3127 37.4652 14.781 39.0225 14.781 40.5798C 14.781 42.7039 15.4655 44.4053 16.83 45.6805C 18.1927 46.8133 20.1623 47.3802 22.7412 47.3802C 26.9831 47.3802 30.3224 46.2474 32.7477 43.9791C 35.1711 41.7161 36.3873 38.5998 36.3873 34.6319L 36.3873 29.3194L 36.3882 29.3194Z"/>
<path id="path32_fill" d="M -9.91886e-06 1.35783e-08L 8.18822 1.35783e-08C 10.3079 1.35783e-08 12.1309 0.671851 13.6456 2.01822C 15.1603 3.36637 15.9172 5.02865 15.9172 7.01039L 15.9172 73.0867L -9.91886e-06 73.0867L -9.91886e-06 1.35783e-08Z"/>
<path id="path33_fill" d="M 109.312 13.7378C 102.268 13.7378 95.7021 13.6061 89.238 13.3329C 81.5639 13.0081 74.3173 12.6637 67.506 12.3443C 51.4371 11.5816 37.5594 10.9205 26.3852 10.9205C 10.2086 10.9205 4.68594 6.96678 3.55809 5.97191C 1.51702 4.83911 -0.380979 3.57994 0.0659194 1.82156C 0.527832 8.48645e-07 2.97076 3.36742e-06 4.14718 3.36742e-06C 7.42296 3.36742e-06 12.3583 0.848045 12.5641 0.88275L 12.5667 0.88275C 12.6506 0.88275 26.6873 1.97728 36.3866 1.97728C 37.4976 1.97728 38.5557 1.96305 39.5334 1.93013C 40.2532 1.90788 41.0066 1.89898 41.7935 1.89898C 45.9154 1.89898 50.9982 2.20153 56.3804 2.52099C 62.9249 2.91521 70.3393 3.35658 77.6531 3.35658C 78.8039 3.35658 79.9538 3.34769 81.1029 3.32544C 87.265 3.19641 92.119 3.13767 96.3795 3.13767C 98.4913 3.13767 100.227 3.15014 101.9 3.16527C 103.446 3.17594 104.937 3.18751 106.621 3.18751C 110.055 3.18751 113.705 3.13501 118.452 3.02021C 121.923 2.93301 125.452 2.89474 129.553 2.89474C 132.626 2.89474 135.636 2.91343 138.657 2.93834C 141.694 2.96059 144.743 2.98195 147.875 2.98195C 153.853 2.98195 161.984 2.91076 171.905 2.34036C 176.717 2.06183 182.067 1.92835 188.263 1.92835C 195.691 1.92835 203.094 2.11789 210.253 2.30387C 216.509 2.46227 222.421 2.6171 227.606 2.6171C 230.348 2.6171 232.677 2.5735 234.727 2.48718C 237.099 2.38485 239.726 2.33769 242.757 2.33769C 247.884 2.33769 253.388 2.47651 259.221 2.62422C 265.51 2.78262 272.013 2.94547 278.534 2.94547C 283.193 2.94547 287.331 2.8636 291.177 2.69007C 294.216 2.55481 297.377 2.48541 300.575 2.48541C 316.599 2.48541 319.973 2.20065 324.034 3.42777C 327.87 4.58727 327.875 6.69537 327.785 7.31383C 327.621 8.4315 326.557 10.3047 321.258 10.3047C 320.628 10.3047 319.935 10.2789 319.184 10.221C 318.484 10.1685 317.425 10.0662 316.098 9.93983C 310.849 9.43884 311.865 10.496 302.85 10.496C 299.368 10.496 296.29 10.633 293.694 10.9116C 290.121 11.2924 281.975 11.4784 268.79 11.4784C 256.081 11.4784 240.263 11.3049 226.306 11.1536C 214.203 11.0237 202.772 10.8982 194.838 10.8982C 192.946 10.8982 191.242 10.9053 189.77 10.9187C 180.449 11.0192 169.859 11.5549 158.649 12.1236C 143.741 12.8844 126.85 13.7378 109.312 13.7378Z"/>
<path id="path34_fill" d="M 2.91288 3.14619C 2.91288 3.14619 7.53112 7.81266 24.8374 7.81266C 40.7535 7.81266 61.8151 9.12967 87.7538 10.2251C 126.114 11.8464 161.729 8.09564 188.203 7.81266C 209.683 7.58841 279.22 9.17683 291.979 7.81266C 304.739 6.45561 313.224 6.77329 317.751 7.12123C 325.684 7.73168 326.44 4.69278 322.041 3.36154C 317.64 2.03563 309.484 1.80427 289.695 2.69058C 269.909 3.57867 248.493 1.84075 233.24 2.4868C 217.987 3.13284 191.971 1.10128 170.441 2.33908C 148.911 3.57867 135.169 2.57045 116.94 3.02072C 99.4464 3.44964 101.717 2.86766 79.5851 3.32327C 63.9224 3.64808 47.7157 1.61295 38.0359 1.93152C 28.356 2.24743 10.7566 0.86101 10.7566 0.86101C 10.7566 0.86101 -6.7599 -2.17166 2.91288 3.14619Z"/>
<path id="path35_fill" d="M 2.04634 42.4364C 3.41175 46.7568 5.68684 50.1917 8.8716 52.7393C 11.9009 55.2888 15.9574 57.0944 21.0393 58.156C 26.1176 59.222 31.1606 59.1126 36.1638 57.8383C 37.9888 57.4702 39.7099 56.9142 41.3269 56.1704L 24.1074 46.2629C 21.8332 45.4824 20.2426 44.5276 19.3312 43.3913C 17.0596 40.8409 15.7675 36.347 15.4672 29.899C 15.1599 23.4564 16.6039 18.6065 19.7887 15.3461C 20.8467 14.3565 22.5177 13.5405 24.791 12.9034C 27.0661 12.2644 29.3386 12.3027 31.6145 13.0084C 33.887 13.7211 35.8953 15.3469 37.6396 17.8973C 38.2153 18.7393 38.6963 19.7204 39.0824 20.8408L 54.0191 29.4657L 54.5325 29.0046L 55.7208 29.0046C 55.7001 22.8376 54.4134 17.4314 51.8545 12.7957C 49.1255 7.55703 44.8809 3.87118 39.1216 1.74706C 34.1148 0.0474104 28.5057 -0.410877 22.289 0.366868C 16.0722 1.14728 10.993 3.65939 7.05224 7.90941C 4.62524 10.4589 2.84474 13.6455 1.70632 17.4693C 0.57054 21.2939 0 25.1177 0 28.9424C 0 33.6187 0.683584 38.117 2.04634 42.4364Z"/>
</defs>
</svg>
